<svg xmlns="http://www.w3.org/2000/svg" width="1200" height="760" viewBox="0 0 1200 760" role="img" aria-labelledby="title desc" data-template="visual-composition-v2" data-generated-by="scripts/generate_preview_svgs.py">
  <title id="title">Account cancellation with risk disclosure prompt to generated mobile UI preview</title>
  <desc id="desc">Generated from a shared visual composition template: prompt, mobile UI screen, state handling, and rendered QA guidance.</desc>
  <metadata>scripts/generate_preview_svgs.py · visual-composition-v2</metadata>
  <defs>
    <linearGradient id="bg" x1="0" y1="0" x2="1" y2="1"><stop offset="0" stop-color="#050814"/><stop offset=".55" stop-color="#0f172a"/><stop offset="1" stop-color="#111827"/></linearGradient>
    <filter id="shadow" x="-20%" y="-20%" width="140%" height="140%"><feDropShadow dx="0" dy="22" stdDeviation="24" flood-color="#000" flood-opacity=".30"/></filter>
    <style>text{font-family:-apple-system,BlinkMacSystemFont,'Pretendard','Noto Sans KR','Segoe UI',sans-serif} .card{filter:url(#shadow)}</style>
  </defs>
  <rect width="1200" height="760" rx="44" fill="url(#bg)"/>
  <circle cx="1064" cy="92" r="154" fill="#ef4444" opacity="0.14" stroke-width="1"/>
  <circle cx="614" cy="720" r="214" fill="#ef4444" opacity="0.08" stroke-width="1"/>
  <g class="card"><rect x="48" y="58" width="332" height="644" rx="30" fill="#111827" stroke="#ffffff" stroke-width="1"/>
<text x="76" y="106" fill="#ef4444" font-size="12" font-weight="900" letter-spacing="1.5">REQUESTED PROMPT</text>
<text x="76" y="150" fill="#ffffff" font-size="19" font-weight="850">Create an account</text>
<text x="76" y="176" fill="#ffffff" font-size="19" font-weight="850">cancellation flow that</text>
<text x="76" y="202" fill="#ffffff" font-size="19" font-weight="850">explains consequences,</text>
<text x="76" y="228" fill="#ffffff" font-size="19" font-weight="850">separates destructive action,</text>
<text x="76" y="254" fill="#ffffff" font-size="19" font-weight="850">asks for reason, and gives a</text>
<rect x="76" y="326" width="276" height="1" rx="0" fill="#ffffff" stroke-width="1" opacity="0.12"/>
<text x="76" y="372" fill="#ef4444" font-size="12" font-weight="900" letter-spacing="1.5">GENERATED UI/UX</text>
<rect x="76" y="404" width="276" height="58" rx="18" fill="#1f2937" stroke="#ef4444" stroke-width="1"/>
<text x="96" y="428" fill="#dbeafe" font-size="14" font-weight="760">Risk disclosure appears near</text>
<text x="96" y="446" fill="#dbeafe" font-size="14" font-weight="760">the top</text>
<rect x="76" y="480" width="276" height="58" rx="18" fill="#1f2937" stroke="#ef4444" stroke-width="1"/>
<text x="96" y="504" fill="#dbeafe" font-size="14" font-weight="760">Alternatives and support</text>
<text x="96" y="522" fill="#dbeafe" font-size="14" font-weight="760">appear before deletion</text>
<rect x="76" y="556" width="276" height="58" rx="18" fill="#1f2937" stroke="#ef4444" stroke-width="1"/>
<text x="96" y="580" fill="#dbeafe" font-size="14" font-weight="760">Reason and confirmation gate</text>
<text x="96" y="598" fill="#dbeafe" font-size="14" font-weight="760">the destructive CTA</text>
<rect x="76" y="630" width="116" height="30" rx="15" fill="#ef4444" stroke-width="1"/>
<text x="134.0" y="650" fill="#07111f" font-size="12" font-weight="850" text-anchor="middle">Mobile UI</text>
<rect x="206" y="630" width="116" height="30" rx="15" fill="#26364d" stroke-width="1"/>
<text x="264.0" y="650" fill="#dbeafe" font-size="12" font-weight="850" text-anchor="middle">UX QA</text></g>
  <g class="card" data-phone-template="account-cancellation"><rect x="430" y="44" width="340" height="672" rx="44" fill="#07111f" stroke="#27374f" stroke-width="2"/>
<rect x="440" y="54" width="320" height="652" rx="34" fill="#fff7f7" stroke-width="1"/>
<rect x="558.0" y="67" width="84" height="7" rx="4" fill="#0f172a" stroke-width="1" opacity="0.22"/>
<text x="462" y="89" fill="#334155" font-size="12" font-weight="850">9:41</text>
<circle cx="714" cy="83" r="4" fill="#334155" opacity="0.65" stroke-width="1"/>
<circle cx="727" cy="83" r="4" fill="#334155" opacity="0.45" stroke-width="1"/>
<circle cx="740" cy="83" r="4" fill="#334155" opacity="0.28" stroke-width="1"/>
<text x="458" y="134" fill="#111827" font-size="26" font-weight="900">×</text>
<text x="498" y="132" fill="#111827" font-size="18" font-weight="900">Delete account</text>
<text x="464" y="190" fill="#991b1b" font-size="23" font-weight="900">Review before leaving</text>
<text x="464" y="248" fill="#64748b" font-size="13" font-weight="650">Confirm what will be removed and</text>
<text x="464" y="268" fill="#64748b" font-size="13" font-weight="650">see alternatives first.</text>
<rect x="464" y="304" width="272" height="98" rx="22" fill="#fee2e2" stroke="#fecaca" stroke-width="1"/>
<text x="482" y="336" fill="#991b1b" font-size="15" font-weight="900">What will be removed</text>
<text x="486" y="366" fill="#7f1d1d" font-size="13" font-weight="780">• Saved data</text>
<text x="486" y="388" fill="#7f1d1d" font-size="13" font-weight="780">• Subscription perks</text>
<text x="486" y="410" fill="#7f1d1d" font-size="13" font-weight="780">• Cannot be restored</text>
<rect x="464" y="426" width="129.0" height="60" rx="18" fill="#ffffff" stroke="#fecaca" stroke-width="1"/>
<text x="478" y="460" fill="#111827" font-size="12" font-weight="850">Pause account</text>
<rect x="607.0" y="426" width="129.0" height="60" rx="18" fill="#ffffff" stroke="#fecaca" stroke-width="1"/>
<text x="621.0" y="460" fill="#111827" font-size="12" font-weight="850">Contact support</text>
<rect x="464" y="510" width="272" height="78" rx="18" fill="#ffffff" stroke="#e5e7eb" stroke-width="1"/>
<text x="482" y="538" fill="#374151" font-size="13" font-weight="900">Reason</text>
<text x="482" y="564" fill="#64748b" font-size="12" font-weight="700">I no longer use the service</text>
<rect x="464" y="604" width="272" height="42" rx="16" fill="#ffffff" stroke="#e5e7eb" stroke-width="1"/>
<rect x="480" y="615" width="20" height="20" rx="7" fill="#dc2626" stroke-width="1"/>
<text x="512" y="631" fill="#111827" font-size="12" font-weight="800">I understand the consequences</text>
<rect x="464" y="642" width="272" height="56" rx="22" fill="#fee2e2" stroke-width="1"/>
<text x="600.0" y="677" fill="#991b1b" font-size="16" font-weight="900" text-anchor="middle">Delete account</text></g>
  <g class="card"><rect x="820" y="58" width="332" height="644" rx="30" fill="#101827" stroke="#ffffff" stroke-width="1"/>
<text x="848" y="106" fill="#ef4444" font-size="12" font-weight="900" letter-spacing="1.5">VISUAL COMPOSITION</text>
<text x="848" y="144" fill="#ffffff" font-size="24" font-weight="900">Visible UI first</text>
<rect x="848" y="212" width="276" height="48" rx="16" fill="#172033" stroke="#27364f" stroke-width="1"/>
<text x="866" y="242" fill="#dbeafe" font-size="13" font-weight="760">Risk card + alternatives + confirmation form</text>
<rect x="848" y="272" width="276" height="48" rx="16" fill="#172033" stroke="#27364f" stroke-width="1"/>
<text x="866" y="302" fill="#dbeafe" font-size="13" font-weight="760">Destructive CTA is separated by color and position</text>
<rect x="848" y="332" width="276" height="48" rx="16" fill="#172033" stroke="#27364f" stroke-width="1"/>
<text x="866" y="362" fill="#dbeafe" font-size="13" font-weight="760">Support path remains visible until the end</text>
<text x="848" y="406" fill="#ef4444" font-size="12" font-weight="900" letter-spacing="1.5">STATE HANDLING</text>
<rect x="848" y="436" width="145" height="30" rx="15" fill="#1f2937" stroke-width="1"/>
<text x="920.5" y="456" fill="#e5f7ff" font-size="11" font-weight="850" text-anchor="middle">default</text>
<rect x="848" y="474" width="194" height="30" rx="15" fill="#1f2937" stroke-width="1"/>
<text x="945.0" y="494" fill="#e5f7ff" font-size="11" font-weight="850" text-anchor="middle">reason focused</text>
<rect x="848" y="512" width="250" height="30" rx="15" fill="#1f2937" stroke-width="1"/>
<text x="973.0" y="532" fill="#e5f7ff" font-size="11" font-weight="850" text-anchor="middle">confirmation unchecked</text>
<rect x="848" y="550" width="180" height="30" rx="15" fill="#1f2937" stroke-width="1"/>
<text x="938.0" y="570" fill="#e5f7ff" font-size="11" font-weight="850" text-anchor="middle">cta disabled</text>
<rect x="848" y="588" width="264" height="30" rx="15" fill="#1f2937" stroke-width="1"/>
<text x="980.0" y="608" fill="#e5f7ff" font-size="11" font-weight="850" text-anchor="middle">destructive confirmation</text>
<text x="848" y="564" fill="#ef4444" font-size="12" font-weight="900" letter-spacing="1.5">QUALITY GATE</text>
<circle cx="854" cy="593" r="4" fill="#ef4444" stroke-width="1"/>
<text x="868" y="598" fill="#dbeafe" font-size="13" font-weight="800">no overlap</text>
<circle cx="854" cy="621" r="4" fill="#ef4444" stroke-width="1"/>
<text x="868" y="626" fill="#dbeafe" font-size="13" font-weight="800">no cropped text</text>
<circle cx="854" cy="649" r="4" fill="#ef4444" stroke-width="1"/>
<text x="868" y="654" fill="#dbeafe" font-size="13" font-weight="800">metadata outside app UI</text>
<text x="848" y="684" fill="#94a3b8" font-size="11" font-weight="650">top app bar with close ·</text></g>
</svg>