<svg xmlns="http://www.w3.org/2000/svg" width="1200" height="760" viewBox="0 0 1200 760" role="img" aria-labelledby="title desc">
  <title id="title">Account cancellation with risk disclosure prompt to generated mobile UI preview</title>
  <desc id="desc">Visual mobile UI/UX result generated from a user prompt by the Mobile UI Generator skill.</desc>
  <defs>
    <linearGradient id="bg" x1="0" y1="0" x2="1" y2="1"><stop offset="0" stop-color="#050814"/><stop offset=".55" stop-color="#0f172a"/><stop offset="1" stop-color="#11202b"/></linearGradient>
    <filter id="shadow" x="-20%" y="-20%" width="140%" height="140%"><feDropShadow dx="0" dy="24" stdDeviation="28" flood-color="#000" flood-opacity=".32"/></filter>
    <style>text{font-family:-apple-system,BlinkMacSystemFont,'Pretendard','Noto Sans KR','Segoe UI',sans-serif} .card{filter:url(#shadow)}</style>
  </defs>
  <rect width="1200" height="760" rx="44" fill="url(#bg)"/>
  <circle cx="1080" cy="80" r="150" fill="#ef4444" opacity=".16"/>
  <circle cx="650" cy="690" r="190" fill="#ef4444" opacity=".10"/>
  <rect x="48" y="58" width="360" height="644" rx="30" fill="#111827" stroke="#ffffff" stroke-width="1"/>
<text x="78" y="104" fill="#ef4444" font-size="13" font-weight="900" letter-spacing="1.8">REQUESTED PROMPT</text>
<text x="78" y="146" fill="#ffffff" font-size="21" font-weight="850">Create an account cancellation</text>
<text x="78" y="173" fill="#ffffff" font-size="21" font-weight="850">flow that explains</text>
<text x="78" y="200" fill="#ffffff" font-size="21" font-weight="850">consequences, separates</text>
<text x="78" y="227" fill="#ffffff" font-size="21" font-weight="850">destructive action, asks for</text>
<text x="78" y="254" fill="#ffffff" font-size="21" font-weight="850">reason, and gives a support</text>
<rect x="78" y="294" width="300" height="1" rx="0" fill="#ffffff" opacity="0.12"/>
<text x="78" y="336" fill="#ef4444" font-size="13" font-weight="900" letter-spacing="1.8">GENERATED UI/UX</text>
<rect x="78" y="348" width="300" height="58" rx="18" fill="#1f2937" stroke="#ef4444" stroke-width="1"/>
<text x="98" y="372" fill="#dbeafe" font-size="15" font-weight="760">Destructive CTA is visually</text>
<text x="98" y="391" fill="#dbeafe" font-size="15" font-weight="760">separated</text>
<rect x="78" y="424" width="300" height="58" rx="18" fill="#1f2937" stroke="#ef4444" stroke-width="1"/>
<text x="98" y="448" fill="#dbeafe" font-size="15" font-weight="760">Losses, alternatives, and</text>
<text x="98" y="467" fill="#dbeafe" font-size="15" font-weight="760">support appear before deletion</text>
<rect x="78" y="500" width="300" height="58" rx="18" fill="#1f2937" stroke="#ef4444" stroke-width="1"/>
<text x="98" y="524" fill="#dbeafe" font-size="15" font-weight="760">Reason and explicit confirmation</text>
<text x="98" y="543" fill="#dbeafe" font-size="15" font-weight="760">gate final action</text>
<rect x="78" y="624" width="132" height="36" rx="18.0" fill="#ef4444"/>
<text x="144.0" y="647.0" fill="#07111f" font-size="14" font-weight="800" text-anchor="middle">Mobile UI</text>
<rect x="222" y="624" width="126" height="36" rx="18.0" fill="#26364d"/>
<text x="285.0" y="647.0" fill="#dbeafe" font-size="14" font-weight="800" text-anchor="middle">UX States</text>
  <g class="card"><rect x="476" y="42" width="336" height="676" rx="44" fill="#07111f" stroke="#24364d" stroke-width="2"/>
<rect x="486" y="52" width="316" height="656" rx="34" fill="#fff7f7"/>
<rect x="602.0" y="64" width="84" height="8" rx="4" fill="#0f1d2e" opacity="0.25"/>
<text x="510" y="86" fill="#334155" font-size="12" font-weight="800">9:41</text>
<circle cx="757" cy="81" r="4" fill="#334155" opacity=".65"/>
<circle cx="770" cy="81" r="4" fill="#334155" opacity=".45"/>
<circle cx="783" cy="81" r="4" fill="#334155" opacity=".28"/>
<text x="510" y="134" fill="#111827" font-size="24" font-weight="900">×</text>
<text x="548" y="134" fill="#111827" font-size="20" font-weight="900">Delete account</text>
<text x="510" y="192" fill="#991b1b" font-size="25" font-weight="900">Review before leaving</text>
<rect x="510" y="220" width="268" height="102" rx="22" fill="#fee2e2" stroke="#fecaca" stroke-width="1"/>
<text x="530" y="252" fill="#991b1b" font-size="16" font-weight="900">What will be removed</text>
<text x="534" y="280" fill="#7f1d1d" font-size="13" font-weight="800">• Saved data</text>
<text x="534" y="302" fill="#7f1d1d" font-size="13" font-weight="800">• Subscription perks</text>
<text x="534" y="324" fill="#7f1d1d" font-size="13" font-weight="800">• Cannot be restored</text>
<rect x="510" y="346" width="126" height="62" rx="18" fill="#ffffff" stroke="#fecaca" stroke-width="1"/>
<text x="526" y="376" fill="#111827" font-size="13" font-weight="900">Pause account</text>
<text x="526" y="396" fill="#64748b" font-size="12" font-weight="700">See option</text>
<rect x="652" y="346" width="126" height="62" rx="18" fill="#ffffff" stroke="#fecaca" stroke-width="1"/>
<text x="668" y="376" fill="#111827" font-size="13" font-weight="900">Support</text>
<text x="668" y="396" fill="#64748b" font-size="12" font-weight="700">Contact us</text>
<rect x="510" y="436" width="268" height="92" rx="18" fill="#ffffff" stroke="#e5e7eb" stroke-width="1"/>
<text x="528" y="464" fill="#374151" font-size="14" font-weight="900">Reason</text>
<text x="528" y="496" fill="#64748b" font-size="13" font-weight="700">I no longer use the service</text>
<rect x="510" y="556" width="268" height="54" rx="18" fill="#ffffff" stroke="#e5e7eb" stroke-width="1"/>
<rect x="528" y="573" width="22" height="22" rx="7" fill="#ef4444"/>
<text x="562" y="592" fill="#111827" font-size="13" font-weight="800">I understand the consequences</text>
<rect x="510" y="640" width="268" height="54" rx="20" fill="#fee2e2" stroke="#fecaca" stroke-width="1"/>
<text x="644" y="674" fill="#b91c1c" font-size="17" font-weight="900" text-anchor="middle">Delete account</text></g>
  <g class="card"><rect x="880" y="174" width="236" height="430" rx="44" fill="#07111f" stroke="#24364d" stroke-width="2"/>
<rect x="890" y="184" width="216" height="410" rx="34" fill="#fff7f7"/>
<rect x="956.0" y="196" width="84" height="8" rx="4" fill="#0f1d2e" opacity="0.25"/>
<text x="914" y="218" fill="#334155" font-size="12" font-weight="800">9:41</text>
<circle cx="1061" cy="213" r="4" fill="#334155" opacity=".65"/>
<circle cx="1074" cy="213" r="4" fill="#334155" opacity=".45"/>
<circle cx="1087" cy="213" r="4" fill="#334155" opacity=".28"/>
<text x="908" y="266" fill="#0f172a" font-size="20" font-weight="900">Final confirmation state</text>
<rect x="908" y="300" width="180" height="42" rx="14" fill="#ffffff" stroke="#e5e7eb" stroke-width="1"/>
<text x="924" y="327" fill="#334155" font-size="14" font-weight="760">Loss reminder</text>
<rect x="908" y="354" width="180" height="42" rx="14" fill="#ffffff" stroke="#e5e7eb" stroke-width="1"/>
<text x="924" y="381" fill="#334155" font-size="14" font-weight="760">Confirm checkbox</text>
<rect x="908" y="408" width="180" height="42" rx="14" fill="#ffffff" stroke="#e5e7eb" stroke-width="1"/>
<text x="924" y="435" fill="#334155" font-size="14" font-weight="760">Reason required</text>
<rect x="908" y="462" width="180" height="42" rx="14" fill="#ffffff" stroke="#e5e7eb" stroke-width="1"/>
<text x="924" y="489" fill="#334155" font-size="14" font-weight="760">Support retained</text>
<rect x="908" y="534" width="180" height="42" rx="16" fill="#ef4444"/>
<text x="998" y="561" fill="#ffffff" font-size="14" font-weight="900" text-anchor="middle">Confirm</text></g>
  <text x="880" y="116" fill="#ef4444" font-size="13" font-weight="900" letter-spacing="1.8">ALTERNATE STATE</text>
  <text x="880" y="144" fill="#dbeafe" font-size="18" font-weight="800">The skill includes state-aware UI.</text>
</svg>