<svg xmlns="http://www.w3.org/2000/svg" width="1200" height="760" viewBox="0 0 1200 760" role="img" aria-labelledby="title desc">
  <title id="title">쿠폰·포인트가 있는 커머스 결제 skill output preview</title>
  <desc id="desc">Generated visual preview from the Mobile UI Generator skill output data.</desc>
  <defs>
    <linearGradient id="bg" x1="0" y1="0" x2="1" y2="1"><stop offset="0" stop-color="#070a12"/><stop offset=".58" stop-color="#101827"/><stop offset="1" stop-color="#0b1f28"/></linearGradient>
    <linearGradient id="header" x1="0" y1="0" x2="1" y2="0"><stop offset="0" stop-color="#ffd166" stop-opacity=".22"/><stop offset="1" stop-color="#80ffdb" stop-opacity=".12"/></linearGradient>
    <filter id="shadow" x="-20%" y="-20%" width="140%" height="140%"><feDropShadow dx="0" dy="24" stdDeviation="28" flood-color="#000" flood-opacity=".30"/></filter>
    <style>
      text{font-family:-apple-system,BlinkMacSystemFont,'Pretendard','Noto Sans KR','Segoe UI',sans-serif}
      .pulse{animation:pulse 2.8s ease-in-out infinite; transform-origin:center}
      @keyframes pulse{0%,100%{opacity:.55}50%{opacity:1}}
      @media (prefers-reduced-motion: reduce){.pulse{animation:none}}
    </style>
  </defs>
  <rect width="1200" height="760" rx="44" fill="url(#bg)"/>
  <rect x="32" y="32" width="1136" height="696" rx="36" fill="#101622" stroke="#fff" stroke-opacity=".08" filter="url(#shadow)"/>
  <rect x="56" y="56" width="1088" height="144" rx="28" fill="url(#header)" stroke="#ffd166" stroke-opacity=".24"/>
  <circle class="pulse" cx="88" cy="89" r="7" fill="#ffd166"/>
  <text x="106" y="94" fill="#ffd166" font-size="14" font-weight="900" letter-spacing="2.1">생성 스킬 산출물</text>
  <text x="80" y="140" fill="#fff" font-size="32" font-weight="900">쿠폰·포인트가 있는 커머스 결제</text>
  <text x="80" y="180" fill="#cbd6ec" font-size="16" font-weight="650">최종 금액, 쿠폰, 포인트, 배송 안내, 결제 실패 상태가 투명하게 보이는 한국 커머스 결제 화면을 만들어줘.</text>
  <text x="760" y="96" fill="#9fb0d0" font-size="13" font-weight="850" letter-spacing="1.6">산출물 프리뷰</text>
  <rect x="760" y="114" width="112" height="30" rx="15" fill="#ffd166" opacity="0.16" stroke="#ffd166" stroke-opacity="0.38"/>
<text x="774" y="134" fill="#effff8" font-size="12" font-weight="850" letter-spacing="0.4">screen brief</text>
<rect x="882" y="114" width="92" height="30" rx="15" fill="#ffd166" opacity="0.16" stroke="#ffd166" stroke-opacity="0.38"/>
<text x="896" y="134" fill="#effff8" font-size="12" font-weight="850" letter-spacing="0.4">JSON spec</text>
<rect x="984" y="114" width="112" height="30" rx="15" fill="#ffd166" opacity="0.16" stroke="#ffd166" stroke-opacity="0.38"/>
<text x="998" y="134" fill="#effff8" font-size="12" font-weight="850" letter-spacing="0.4">state matrix</text>
  
  <g class="panel">
    <rect x="56" y="232" width="340" height="188" rx="22" fill="#171d2b" stroke="#ffffff" stroke-opacity="0.09"/>
    <text x="78" y="266" fill="#ffd166" font-size="13" font-weight="900" letter-spacing="1.8">PATTERN SYSTEM</text>
    <text x="80" y="286" fill="#8fa1c3" font-size="12" font-weight="800">app_type</text>
<text x="192" y="286" fill="#ffffff" font-size="15" font-weight="850">커머스 / 마켓플레이스</text>
<text x="80" y="334" fill="#8fa1c3" font-size="12" font-weight="800">ui_patterns</text>
<text x="192" y="334" fill="#ffffff" font-size="15" font-weight="850">cart, checkout, coupon_points,</text>
<text x="192" y="354" fill="#ffffff" font-size="15" font-weight="850">payment_status</text>
<text x="80" y="382" fill="#8fa1c3" font-size="12" font-weight="800">layout</text>
<text x="192" y="382" fill="#ffffff" font-size="15" font-weight="850">stacked_summary_form</text>
  </g>
  <g class="panel">
    <rect x="416" y="232" width="360" height="188" rx="22" fill="#171d2b" stroke="#ffffff" stroke-opacity="0.09"/>
    <text x="438" y="266" fill="#ffd166" font-size="13" font-weight="900" letter-spacing="1.8">BRIEF EXCERPT</text>
    <text x="440" y="286" fill="#dbe7ff" font-size="17" font-weight="700">가격 확신과 회복 경로를 명확히 보여주며 구매 결정을 돕습니다.</text><text x="440" y="360" fill="#9fb0d0" font-size="15" font-weight="650">쿠폰·포인트 변경 시 즉시 금액을 재계산하고, 결제 로딩 중에는 중복 탭을 막되 맥락은</text>
<text x="440" y="380" fill="#9fb0d0" font-size="15" font-weight="650">유지합니다.</text>
  </g>
  <g class="panel">
    <rect x="796" y="232" width="348" height="188" rx="22" fill="#171d2b" stroke="#ffffff" stroke-opacity="0.09"/>
    <text x="818" y="266" fill="#80ffdb" font-size="13" font-weight="900" letter-spacing="1.8">IMPLEMENTATION PROMPT</text>
    <text x="820" y="286" fill="#d7f7ef" font-size="15" font-weight="700">투명한 금액 계산을 보여주는 결제 확인 화면을 구현하세요. 쿠폰, 포인트,</text>
<text x="820" y="306" fill="#d7f7ef" font-size="15" font-weight="700">배송, 결제수단 섹션을 분리하고, 하단 고정 CTA에는 최종 금액을</text>
<text x="820" y="326" fill="#d7f7ef" font-size="15" font-weight="700">포함하세요. 로딩/실패/성공 상태에서도 가격 breakdown을 숨기지</text>
<text x="820" y="346" fill="#d7f7ef" font-size="15" font-weight="700">마세요.</text>
  </g>
  <g class="panel">
    <rect x="56" y="446" width="340" height="248" rx="22" fill="#171d2b" stroke="#ffffff" stroke-opacity="0.09"/>
    <text x="78" y="480" fill="#ffd166" font-size="13" font-weight="900" letter-spacing="1.8">COMPONENTS</text>
    <circle cx="82" cy="495" r="4" fill="#ffd166"/>
<text x="100" y="500" fill="#d6e4fb" font-size="15" font-weight="650">주문 요약</text>
<circle cx="82" cy="529" r="4" fill="#ffd166"/>
<text x="100" y="534" fill="#d6e4fb" font-size="15" font-weight="650">배송지 카드</text>
<circle cx="82" cy="563" r="4" fill="#ffd166"/>
<text x="100" y="568" fill="#d6e4fb" font-size="15" font-weight="650">쿠폰 선택</text>
<circle cx="82" cy="597" r="4" fill="#ffd166"/>
<text x="100" y="602" fill="#d6e4fb" font-size="15" font-weight="650">포인트 입력</text>
<circle cx="82" cy="631" r="4" fill="#ffd166"/>
<text x="100" y="636" fill="#d6e4fb" font-size="15" font-weight="650">가격 breakdown</text>
<circle cx="82" cy="665" r="4" fill="#ffd166"/>
<text x="100" y="670" fill="#d6e4fb" font-size="15" font-weight="650">결제수단 행</text>
  </g>
  <g class="panel">
    <rect x="416" y="446" width="340" height="248" rx="22" fill="#171d2b" stroke="#ffffff" stroke-opacity="0.09"/>
    <text x="438" y="480" fill="#80ffdb" font-size="13" font-weight="900" letter-spacing="1.8">STATE MATRIX</text>
    <circle cx="442" cy="495" r="4" fill="#80ffdb"/>
<text x="460" y="500" fill="#d6e4fb" font-size="15" font-weight="650">쿠폰 사용 불가</text>
<circle cx="442" cy="529" r="4" fill="#80ffdb"/>
<text x="460" y="534" fill="#d6e4fb" font-size="15" font-weight="650">포인트 한도 초과</text>
<circle cx="442" cy="563" r="4" fill="#80ffdb"/>
<text x="460" y="568" fill="#d6e4fb" font-size="15" font-weight="650">배송지 없음</text>
<circle cx="442" cy="597" r="4" fill="#80ffdb"/>
<text x="460" y="602" fill="#d6e4fb" font-size="15" font-weight="650">결제 진행 중</text>
<circle cx="442" cy="631" r="4" fill="#80ffdb"/>
<text x="460" y="636" fill="#d6e4fb" font-size="15" font-weight="650">결제 실패</text>
<circle cx="442" cy="665" r="4" fill="#80ffdb"/>
<text x="460" y="670" fill="#d6e4fb" font-size="15" font-weight="650">주문 성공</text>
  </g>
  <g class="panel">
    <rect x="776" y="446" width="368" height="248" rx="22" fill="#171d2b" stroke="#ffffff" stroke-opacity="0.09"/>
    <text x="798" y="480" fill="#80ffdb" font-size="13" font-weight="900" letter-spacing="1.8">JSON SPEC</text>
    <text x="800" y="500" fill="#8fa1c3" font-size="12" font-weight="800">screen_id</text>
<text x="906" y="500" fill="#ffffff" font-size="15" font-weight="850">checkout_review</text>
<text x="800" y="548" fill="#8fa1c3" font-size="12" font-weight="800">navigation</text>
<text x="906" y="548" fill="#ffffff" font-size="15" font-weight="850">top_app_bar + sticky_amount_cta</text>
<text x="800" y="596" fill="#8fa1c3" font-size="12" font-weight="800">primary_cta</text>
<text x="906" y="596" fill="#ffffff" font-size="15" font-weight="850">68,400원 결제하기</text>
<text x="800" y="644" fill="#8fa1c3" font-size="12" font-weight="800">language</text>
<text x="906" y="644" fill="#ffffff" font-size="15" font-weight="850">ko</text>
  </g>
</svg>