<svg xmlns="http://www.w3.org/2000/svg" width="1200" height="760" viewBox="0 0 1200 760" role="img" aria-labelledby="title desc">
  <title id="title">Commerce checkout with coupon and points prompt to generated mobile UI preview</title>
  <desc id="desc">Visual mobile UI/UX result generated from a user prompt by the Mobile UI Generator skill.</desc>
  <defs>
    <linearGradient id="bg" x1="0" y1="0" x2="1" y2="1"><stop offset="0" stop-color="#050814"/><stop offset=".55" stop-color="#0f172a"/><stop offset="1" stop-color="#11202b"/></linearGradient>
    <filter id="shadow" x="-20%" y="-20%" width="140%" height="140%"><feDropShadow dx="0" dy="24" stdDeviation="28" flood-color="#000" flood-opacity=".32"/></filter>
    <style>text{font-family:-apple-system,BlinkMacSystemFont,'Pretendard','Noto Sans KR','Segoe UI',sans-serif} .card{filter:url(#shadow)}</style>
  </defs>
  <rect width="1200" height="760" rx="44" fill="url(#bg)"/>
  <circle cx="1080" cy="80" r="150" fill="#f59e0b" opacity=".16"/>
  <circle cx="650" cy="690" r="190" fill="#f59e0b" opacity=".10"/>
  <rect x="48" y="58" width="360" height="644" rx="30" fill="#111827" stroke="#ffffff" stroke-width="1"/>
<text x="78" y="104" fill="#f59e0b" font-size="13" font-weight="900" letter-spacing="1.8">REQUESTED PROMPT</text>
<text x="78" y="146" fill="#ffffff" font-size="21" font-weight="850">Create a Korean commerce</text>
<text x="78" y="173" fill="#ffffff" font-size="21" font-weight="850">checkout screen that makes</text>
<text x="78" y="200" fill="#ffffff" font-size="21" font-weight="850">final price, coupon, points,</text>
<text x="78" y="227" fill="#ffffff" font-size="21" font-weight="850">delivery note, and payment</text>
<text x="78" y="254" fill="#ffffff" font-size="21" font-weight="850">failure states transparent.</text>
<rect x="78" y="294" width="300" height="1" rx="0" fill="#ffffff" opacity="0.12"/>
<text x="78" y="336" fill="#f59e0b" font-size="13" font-weight="900" letter-spacing="1.8">GENERATED UI/UX</text>
<rect x="78" y="348" width="300" height="58" rx="18" fill="#1f2937" stroke="#f59e0b" stroke-width="1"/>
<text x="98" y="372" fill="#dbeafe" font-size="15" font-weight="760">Final amount is the visual</text>
<text x="98" y="391" fill="#dbeafe" font-size="15" font-weight="760">anchor</text>
<rect x="78" y="424" width="300" height="58" rx="18" fill="#1f2937" stroke="#f59e0b" stroke-width="1"/>
<text x="98" y="448" fill="#dbeafe" font-size="15" font-weight="760">Coupon/points changes keep price</text>
<text x="98" y="467" fill="#dbeafe" font-size="15" font-weight="760">breakdown visible</text>
<rect x="78" y="500" width="300" height="58" rx="18" fill="#1f2937" stroke="#f59e0b" stroke-width="1"/>
<text x="98" y="524" fill="#dbeafe" font-size="15" font-weight="760">Payment failure recovers near</text>
<text x="98" y="543" fill="#dbeafe" font-size="15" font-weight="760">the CTA</text>
<rect x="78" y="624" width="132" height="36" rx="18.0" fill="#f59e0b"/>
<text x="144.0" y="647.0" fill="#07111f" font-size="14" font-weight="800" text-anchor="middle">Mobile UI</text>
<rect x="222" y="624" width="126" height="36" rx="18.0" fill="#26364d"/>
<text x="285.0" y="647.0" fill="#dbeafe" font-size="14" font-weight="800" text-anchor="middle">UX States</text>
  <g class="card"><rect x="476" y="42" width="336" height="676" rx="44" fill="#07111f" stroke="#24364d" stroke-width="2"/>
<rect x="486" y="52" width="316" height="656" rx="34" fill="#fffaf2"/>
<rect x="602.0" y="64" width="84" height="8" rx="4" fill="#0f1d2e" opacity="0.25"/>
<text x="510" y="86" fill="#334155" font-size="12" font-weight="800">9:41</text>
<circle cx="757" cy="81" r="4" fill="#334155" opacity=".65"/>
<circle cx="770" cy="81" r="4" fill="#334155" opacity=".45"/>
<circle cx="783" cy="81" r="4" fill="#334155" opacity=".28"/>
<text x="510" y="134" fill="#111827" font-size="28" font-weight="900">‹</text>
<text x="548" y="134" fill="#111827" font-size="20" font-weight="900">Checkout</text>
<rect x="510" y="168" width="268" height="86" rx="24" fill="#111827"/>
<text x="530" y="204" fill="#fbbf24" font-size="14" font-weight="800">Total payment</text>
<text x="530" y="236" fill="#ffffff" font-size="30" font-weight="900">₩68,400</text>
<rect x="510" y="272" width="268" height="70" rx="18" fill="#ffffff" stroke="#fde68a" stroke-width="1"/>
<text x="530" y="300" fill="#111827" font-size="16" font-weight="900">2 items · ships today</text>
<text x="530" y="324" fill="#64748b" font-size="13" font-weight="800">Delivery ₩0</text>
<rect x="510" y="358" width="126" height="74" rx="18" fill="#ffffff" stroke="#fed7aa" stroke-width="1"/>
<text x="526" y="386" fill="#92400e" font-size="14" font-weight="900">Coupon</text>
<text x="526" y="414" fill="#111827" font-size="21" font-weight="900">-₩5,000</text>
<rect x="652" y="358" width="126" height="74" rx="18" fill="#ffffff" stroke="#fed7aa" stroke-width="1"/>
<text x="668" y="386" fill="#92400e" font-size="14" font-weight="900">Points</text>
<text x="668" y="414" fill="#111827" font-size="21" font-weight="900">2,400P</text>
<text x="524" y="462" fill="#64748b" font-size="14" font-weight="760">Items</text>
<text x="762" y="462" fill="#111827" font-size="14" font-weight="900" text-anchor="end">₩75,800</text>
<text x="524" y="492" fill="#64748b" font-size="14" font-weight="760">Discount</text>
<text x="762" y="492" fill="#111827" font-size="14" font-weight="900" text-anchor="end">-₩7,400</text>
<text x="524" y="522" fill="#64748b" font-size="14" font-weight="760">Delivery</text>
<text x="762" y="522" fill="#111827" font-size="14" font-weight="900" text-anchor="end">₩0</text>
<rect x="510" y="572" width="268" height="44" rx="16" fill="#ffffff" stroke="#e5e7eb" stroke-width="1"/>
<text x="530" y="600" fill="#111827" font-size="15" font-weight="850">Card · **** 4821</text>
<rect x="502" y="638" width="284" height="62" rx="24" fill="#111827"/>
<text x="644" y="676" fill="#ffffff" font-size="18" font-weight="900" text-anchor="middle">Pay ₩68,400</text></g>
  <g class="card"><rect x="880" y="174" width="236" height="430" rx="44" fill="#07111f" stroke="#24364d" stroke-width="2"/>
<rect x="890" y="184" width="216" height="410" rx="34" fill="#f8fbff"/>
<rect x="956.0" y="196" width="84" height="8" rx="4" fill="#0f1d2e" opacity="0.25"/>
<text x="914" y="218" fill="#334155" font-size="12" font-weight="800">9:41</text>
<circle cx="1061" cy="213" r="4" fill="#334155" opacity=".65"/>
<circle cx="1074" cy="213" r="4" fill="#334155" opacity=".45"/>
<circle cx="1087" cy="213" r="4" fill="#334155" opacity=".28"/>
<text x="908" y="266" fill="#0f172a" font-size="20" font-weight="900">Payment failure state</text>
<rect x="908" y="300" width="180" height="42" rx="14" fill="#ffffff" stroke="#e5e7eb" stroke-width="1"/>
<text x="924" y="327" fill="#334155" font-size="14" font-weight="760">Amount preserved</text>
<rect x="908" y="354" width="180" height="42" rx="14" fill="#ffffff" stroke="#e5e7eb" stroke-width="1"/>
<text x="924" y="381" fill="#334155" font-size="14" font-weight="760">Failure reason</text>
<rect x="908" y="408" width="180" height="42" rx="14" fill="#ffffff" stroke="#e5e7eb" stroke-width="1"/>
<text x="924" y="435" fill="#334155" font-size="14" font-weight="760">Change card</text>
<rect x="908" y="462" width="180" height="42" rx="14" fill="#ffffff" stroke="#e5e7eb" stroke-width="1"/>
<text x="924" y="489" fill="#334155" font-size="14" font-weight="760">Pay again</text>
<rect x="908" y="534" width="180" height="42" rx="16" fill="#f59e0b"/>
<text x="998" y="561" fill="#ffffff" font-size="14" font-weight="900" text-anchor="middle">Retry</text></g>
  <text x="880" y="116" fill="#f59e0b" font-size="13" font-weight="900" letter-spacing="1.8">ALTERNATE STATE</text>
  <text x="880" y="144" fill="#dbeafe" font-size="18" font-weight="800">The skill includes state-aware UI.</text>
</svg>