<svg xmlns="http://www.w3.org/2000/svg" width="1200" height="760" viewBox="0 0 1200 760" role="img" aria-labelledby="title desc" data-template="visual-composition-v2" data-generated-by="scripts/generate_preview_svgs.py">
  <title id="title">쿠폰·포인트가 있는 커머스 결제 prompt to generated mobile UI preview</title>
  <desc id="desc">Generated from a shared visual composition template: prompt, mobile UI screen, state handling, and rendered QA guidance.</desc>
  <metadata>scripts/generate_preview_svgs.py · visual-composition-v2</metadata>
  <defs>
    <linearGradient id="bg" x1="0" y1="0" x2="1" y2="1"><stop offset="0" stop-color="#050814"/><stop offset=".55" stop-color="#0f172a"/><stop offset="1" stop-color="#111827"/></linearGradient>
    <filter id="shadow" x="-20%" y="-20%" width="140%" height="140%"><feDropShadow dx="0" dy="22" stdDeviation="24" flood-color="#000" flood-opacity=".30"/></filter>
    <style>text{font-family:-apple-system,BlinkMacSystemFont,'Pretendard','Noto Sans KR','Segoe UI',sans-serif} .card{filter:url(#shadow)}</style>
  </defs>
  <rect width="1200" height="760" rx="44" fill="url(#bg)"/>
  <circle cx="1064" cy="92" r="154" fill="#f59e0b" opacity="0.14" stroke-width="1"/>
  <circle cx="614" cy="720" r="214" fill="#f59e0b" opacity="0.08" stroke-width="1"/>
  <g class="card"><rect x="48" y="58" width="332" height="644" rx="30" fill="#111827" stroke="#ffffff" stroke-width="1"/>
<text x="76" y="106" fill="#f59e0b" font-size="12" font-weight="900" letter-spacing="1.5">요청 프롬프트</text>
<text x="76" y="150" fill="#ffffff" font-size="19" font-weight="850">최종 금액, 쿠폰, 포인트,</text>
<text x="76" y="176" fill="#ffffff" font-size="19" font-weight="850">배송 안내, 결제 실패 상태가</text>
<text x="76" y="202" fill="#ffffff" font-size="19" font-weight="850">투명하게 보이는 한국 커머스</text>
<text x="76" y="228" fill="#ffffff" font-size="19" font-weight="850">결제 화면을 만들어줘.</text>
<rect x="76" y="326" width="276" height="1" rx="0" fill="#ffffff" stroke-width="1" opacity="0.12"/>
<text x="76" y="372" fill="#f59e0b" font-size="12" font-weight="900" letter-spacing="1.5">생성되는 UI/UX</text>
<rect x="76" y="404" width="276" height="58" rx="18" fill="#1f2937" stroke="#f59e0b" stroke-width="1"/>
<text x="96" y="428" fill="#dbeafe" font-size="14" font-weight="760">최종 금액이 첫 번째 시각 초점</text>
<rect x="76" y="480" width="276" height="58" rx="18" fill="#1f2937" stroke="#f59e0b" stroke-width="1"/>
<text x="96" y="504" fill="#dbeafe" font-size="14" font-weight="760">할인/포인트 변경에도</text>
<text x="96" y="522" fill="#dbeafe" font-size="14" font-weight="760">breakdown 유지</text>
<rect x="76" y="556" width="276" height="58" rx="18" fill="#1f2937" stroke="#f59e0b" stroke-width="1"/>
<text x="96" y="580" fill="#dbeafe" font-size="14" font-weight="760">결제 실패는 CTA 근처에서 복구</text>
<rect x="76" y="630" width="116" height="30" rx="15" fill="#f59e0b" stroke-width="1"/>
<text x="134.0" y="650" fill="#07111f" font-size="12" font-weight="850" text-anchor="middle">Mobile UI</text>
<rect x="206" y="630" width="116" height="30" rx="15" fill="#26364d" stroke-width="1"/>
<text x="264.0" y="650" fill="#dbeafe" font-size="12" font-weight="850" text-anchor="middle">UX QA</text></g>
  <g class="card" data-phone-template="commerce-checkout"><rect x="430" y="44" width="340" height="672" rx="44" fill="#07111f" stroke="#27374f" stroke-width="2"/>
<rect x="440" y="54" width="320" height="652" rx="34" fill="#fffbeb" stroke-width="1"/>
<rect x="558.0" y="67" width="84" height="7" rx="4" fill="#0f172a" stroke-width="1" opacity="0.22"/>
<text x="462" y="89" fill="#334155" font-size="12" font-weight="850">9:41</text>
<circle cx="714" cy="83" r="4" fill="#334155" opacity="0.65" stroke-width="1"/>
<circle cx="727" cy="83" r="4" fill="#334155" opacity="0.45" stroke-width="1"/>
<circle cx="740" cy="83" r="4" fill="#334155" opacity="0.28" stroke-width="1"/>
<text x="458" y="134" fill="#111827" font-size="26" font-weight="900">‹</text>
<text x="498" y="132" fill="#111827" font-size="18" font-weight="900">주문/결제</text>
<rect x="464" y="160" width="272" height="92" rx="24" fill="#111827" stroke-width="1"/>
<text x="484" y="194" fill="#f59e0b" font-size="13" font-weight="800">최종 결제금액</text>
<text x="484" y="231" fill="#ffffff" font-size="30" font-weight="900">68,400원</text>
<rect x="464" y="272" width="272" height="68" rx="18" fill="#ffffff" stroke="#fde68a" stroke-width="1"/>
<text x="482" y="300" fill="#111827" font-size="15" font-weight="900">상품 2개 · 오늘 출발</text>
<text x="482" y="324" fill="#64748b" font-size="13" font-weight="750">배송비 0원</text>
<rect x="464" y="360" width="129.0" height="70" rx="18" fill="#ffffff" stroke="#fed7aa" stroke-width="1"/>
<text x="480" y="390" fill="#92400e" font-size="14" font-weight="900">쿠폰 -5,000원</text>
<rect x="607.0" y="360" width="129.0" height="70" rx="18" fill="#ffffff" stroke="#fed7aa" stroke-width="1"/>
<text x="623.0" y="390" fill="#92400e" font-size="14" font-weight="900">포인트 2,400P</text>
<text x="472" y="464" fill="#64748b" font-size="13" font-weight="750">상품금액</text>
<text x="728" y="464" fill="#111827" font-size="13" font-weight="900" text-anchor="end">75,800원</text>
<text x="472" y="494" fill="#64748b" font-size="13" font-weight="750">할인</text>
<text x="728" y="494" fill="#111827" font-size="13" font-weight="900" text-anchor="end">-7,400원</text>
<text x="472" y="524" fill="#64748b" font-size="13" font-weight="750">배송비</text>
<text x="728" y="524" fill="#111827" font-size="13" font-weight="900" text-anchor="end">0원</text>
<rect x="464" y="562" width="272" height="46" rx="16" fill="#ffffff" stroke="#e5e7eb" stroke-width="1"/>
<text x="482" y="591" fill="#111827" font-size="14" font-weight="850">카드 · **** 4821</text>
<rect x="464" y="634" width="272" height="56" rx="22" fill="#111827" stroke-width="1"/>
<text x="600.0" y="669" fill="#ffffff" font-size="16" font-weight="900" text-anchor="middle">68,400원 결제하기</text></g>
  <g class="card"><rect x="820" y="58" width="332" height="644" rx="30" fill="#101827" stroke="#ffffff" stroke-width="1"/>
<text x="848" y="106" fill="#f59e0b" font-size="12" font-weight="900" letter-spacing="1.5">시각 구성</text>
<text x="848" y="144" fill="#ffffff" font-size="24" font-weight="900">보이는 화면 기준</text>
<rect x="848" y="212" width="276" height="48" rx="16" fill="#172033" stroke="#27364f" stroke-width="1"/>
<text x="866" y="242" fill="#dbeafe" font-size="13" font-weight="760">금액 카드 1개 + 보조 카드 2개</text>
<rect x="848" y="272" width="276" height="48" rx="16" fill="#172033" stroke="#27364f" stroke-width="1"/>
<text x="866" y="302" fill="#dbeafe" font-size="13" font-weight="760">가격 행은 오른쪽 끝 정렬</text>
<rect x="848" y="332" width="276" height="48" rx="16" fill="#172033" stroke="#27364f" stroke-width="1"/>
<text x="866" y="362" fill="#dbeafe" font-size="13" font-weight="760">결제 CTA에 금액 반복</text>
<text x="848" y="406" fill="#f59e0b" font-size="12" font-weight="900" letter-spacing="1.5">상태 대응</text>
<rect x="848" y="436" width="152" height="30" rx="15" fill="#1f2937" stroke-width="1"/>
<text x="924.0" y="456" fill="#e5f7ff" font-size="11" font-weight="850" text-anchor="middle">쿠폰 사용 불가</text>
<rect x="848" y="474" width="159" height="30" rx="15" fill="#1f2937" stroke-width="1"/>
<text x="927.5" y="494" fill="#e5f7ff" font-size="11" font-weight="850" text-anchor="middle">포인트 한도 초과</text>
<rect x="848" y="512" width="138" height="30" rx="15" fill="#1f2937" stroke-width="1"/>
<text x="917.0" y="532" fill="#e5f7ff" font-size="11" font-weight="850" text-anchor="middle">배송지 없음</text>
<rect x="848" y="550" width="145" height="30" rx="15" fill="#1f2937" stroke-width="1"/>
<text x="920.5" y="570" fill="#e5f7ff" font-size="11" font-weight="850" text-anchor="middle">결제 진행 중</text>
<rect x="848" y="588" width="131" height="30" rx="15" fill="#1f2937" stroke-width="1"/>
<text x="913.5" y="608" fill="#e5f7ff" font-size="11" font-weight="850" text-anchor="middle">결제 실패</text>
<text x="848" y="564" fill="#f59e0b" font-size="12" font-weight="900" letter-spacing="1.5">품질 게이트</text>
<circle cx="854" cy="593" r="4" fill="#f59e0b" stroke-width="1"/>
<text x="868" y="598" fill="#dbeafe" font-size="13" font-weight="800">겹침 없음</text>
<circle cx="854" cy="621" r="4" fill="#f59e0b" stroke-width="1"/>
<text x="868" y="626" fill="#dbeafe" font-size="13" font-weight="800">텍스트 잘림 없음</text>
<circle cx="854" cy="649" r="4" fill="#f59e0b" stroke-width="1"/>
<text x="868" y="654" fill="#dbeafe" font-size="13" font-weight="800">메타데이터는 앱 밖에</text>
<text x="848" y="684" fill="#94a3b8" font-size="11" font-weight="650">주문 요약 · 배송지 카드 · 쿠폰 선택</text></g>
</svg>