<svg xmlns="http://www.w3.org/2000/svg" width="1200" height="760" viewBox="0 0 1200 760" role="img" aria-labelledby="title desc" data-template="visual-composition-v2" data-generated-by="scripts/generate_preview_svgs.py">
  <title id="title">Korean fintech phone verification prompt to generated mobile UI preview</title>
  <desc id="desc">Generated from a shared visual composition template: prompt, mobile UI screen, state handling, and rendered QA guidance.</desc>
  <metadata>scripts/generate_preview_svgs.py · visual-composition-v2</metadata>
  <defs>
    <linearGradient id="bg" x1="0" y1="0" x2="1" y2="1"><stop offset="0" stop-color="#050814"/><stop offset=".55" stop-color="#0f172a"/><stop offset="1" stop-color="#111827"/></linearGradient>
    <filter id="shadow" x="-20%" y="-20%" width="140%" height="140%"><feDropShadow dx="0" dy="22" stdDeviation="24" flood-color="#000" flood-opacity=".30"/></filter>
    <style>text{font-family:-apple-system,BlinkMacSystemFont,'Pretendard','Noto Sans KR','Segoe UI',sans-serif} .card{filter:url(#shadow)}</style>
  </defs>
  <rect width="1200" height="760" rx="44" fill="url(#bg)"/>
  <circle cx="1064" cy="92" r="154" fill="#0ea5e9" opacity="0.14" stroke-width="1"/>
  <circle cx="614" cy="720" r="214" fill="#0ea5e9" opacity="0.08" stroke-width="1"/>
  <g class="card"><rect x="48" y="58" width="332" height="644" rx="30" fill="#111827" stroke="#ffffff" stroke-width="1"/>
<text x="76" y="106" fill="#0ea5e9" font-size="12" font-weight="900" letter-spacing="1.5">REQUESTED PROMPT</text>
<text x="76" y="150" fill="#ffffff" font-size="19" font-weight="850">Design a Korean fintech</text>
<text x="76" y="176" fill="#ffffff" font-size="19" font-weight="850">signup phone verification</text>
<text x="76" y="202" fill="#ffffff" font-size="19" font-weight="850">screen with required terms,</text>
<text x="76" y="228" fill="#ffffff" font-size="19" font-weight="850">resend timer, error states,</text>
<text x="76" y="254" fill="#ffffff" font-size="19" font-weight="850">and a safe fixed CTA.</text>
<rect x="76" y="326" width="276" height="1" rx="0" fill="#ffffff" stroke-width="1" opacity="0.12"/>
<text x="76" y="372" fill="#0ea5e9" font-size="12" font-weight="900" letter-spacing="1.5">GENERATED UI/UX</text>
<rect x="76" y="404" width="276" height="58" rx="18" fill="#1f2937" stroke="#0ea5e9" stroke-width="1"/>
<text x="96" y="428" fill="#dbeafe" font-size="14" font-weight="760">Single-task verification form</text>
<rect x="76" y="480" width="276" height="58" rx="18" fill="#1f2937" stroke="#0ea5e9" stroke-width="1"/>
<text x="96" y="504" fill="#dbeafe" font-size="14" font-weight="760">Error and resend states stay</text>
<text x="96" y="522" fill="#dbeafe" font-size="14" font-weight="760">near the input</text>
<rect x="76" y="556" width="276" height="58" rx="18" fill="#1f2937" stroke="#0ea5e9" stroke-width="1"/>
<text x="96" y="580" fill="#dbeafe" font-size="14" font-weight="760">Fixed CTA is safe until</text>
<text x="96" y="598" fill="#dbeafe" font-size="14" font-weight="760">requirements pass</text>
<rect x="76" y="630" width="116" height="30" rx="15" fill="#0ea5e9" stroke-width="1"/>
<text x="134.0" y="650" fill="#07111f" font-size="12" font-weight="850" text-anchor="middle">Mobile UI</text>
<rect x="206" y="630" width="116" height="30" rx="15" fill="#26364d" stroke-width="1"/>
<text x="264.0" y="650" fill="#dbeafe" font-size="12" font-weight="850" text-anchor="middle">UX QA</text></g>
  <g class="card" data-phone-template="fintech-phone-verification"><rect x="430" y="44" width="340" height="672" rx="44" fill="#07111f" stroke="#27374f" stroke-width="2"/>
<rect x="440" y="54" width="320" height="652" rx="34" fill="#f8fafc" stroke-width="1"/>
<rect x="558.0" y="67" width="84" height="7" rx="4" fill="#0f172a" stroke-width="1" opacity="0.22"/>
<text x="462" y="89" fill="#334155" font-size="12" font-weight="850">9:41</text>
<circle cx="714" cy="83" r="4" fill="#334155" opacity="0.65" stroke-width="1"/>
<circle cx="727" cy="83" r="4" fill="#334155" opacity="0.45" stroke-width="1"/>
<circle cx="740" cy="83" r="4" fill="#334155" opacity="0.28" stroke-width="1"/>
<text x="458" y="134" fill="#111827" font-size="26" font-weight="900">‹</text>
<text x="498" y="132" fill="#111827" font-size="18" font-weight="900">Phone verification</text>
<text x="464" y="194" fill="#0f172a" font-size="24" font-weight="900">Verify your phone</text>
<text x="464" y="254" fill="#64748b" font-size="14" font-weight="650">Enter the code sent by SMS to</text>
<text x="464" y="275" fill="#64748b" font-size="14" font-weight="650">continue signup.</text>
<rect x="464" y="314" width="272" height="70" rx="20" fill="#ffffff" stroke="#e2e8f0" stroke-width="1"/>
<text x="482" y="342" fill="#64748b" font-size="12" font-weight="800">Phone number</text>
<text x="482" y="368" fill="#111827" font-size="21" font-weight="900">010-****-4821</text>
<rect x="464" y="414" width="37" height="48" rx="12" fill="#ffffff" stroke="#cbd5e1" stroke-width="2"/>
<text x="482.5" y="445" fill="#0f172a" font-size="21" font-weight="900" text-anchor="middle">1</text>
<rect x="509" y="414" width="37" height="48" rx="12" fill="#ffffff" stroke="#cbd5e1" stroke-width="2"/>
<text x="527.5" y="445" fill="#0f172a" font-size="21" font-weight="900" text-anchor="middle">4</text>
<rect x="554" y="414" width="37" height="48" rx="12" fill="#ffffff" stroke="#cbd5e1" stroke-width="2"/>
<text x="572.5" y="445" fill="#0f172a" font-size="21" font-weight="900" text-anchor="middle">8</text>
<rect x="599" y="414" width="37" height="48" rx="12" fill="#ffffff" stroke="#0ea5e9" stroke-width="2"/>
<text x="617.5" y="445" fill="#0f172a" font-size="21" font-weight="900" text-anchor="middle" opacity="0.3">•</text>
<rect x="644" y="414" width="37" height="48" rx="12" fill="#ffffff" stroke="#cbd5e1" stroke-width="2"/>
<text x="662.5" y="445" fill="#0f172a" font-size="21" font-weight="900" text-anchor="middle" opacity="0.3">•</text>
<rect x="689" y="414" width="37" height="48" rx="12" fill="#ffffff" stroke="#cbd5e1" stroke-width="2"/>
<text x="707.5" y="445" fill="#0f172a" font-size="21" font-weight="900" text-anchor="middle" opacity="0.3">•</text>
<text x="464" y="494" fill="#ef4444" font-size="13" font-weight="850">The code does not match.</text>
<text x="736" y="494" fill="#0369a1" font-size="13" font-weight="850" text-anchor="end">Resend in 02:31</text>
<rect x="464" y="534" width="272" height="52" rx="18" fill="#ffffff" stroke="#e2e8f0" stroke-width="1"/>
<rect x="482" y="550" width="22" height="22" rx="7" fill="#0ea5e9" stroke-width="1"/>
<text x="516" y="568" fill="#111827" font-size="14" font-weight="800">Required terms accepted</text>
<rect x="464" y="634" width="272" height="56" rx="22" fill="#0ea5e9" stroke-width="1"/>
<text x="600.0" y="669" fill="#ffffff" font-size="16" font-weight="900" text-anchor="middle">Verify and continue</text></g>
  <g class="card"><rect x="820" y="58" width="332" height="644" rx="30" fill="#101827" stroke="#ffffff" stroke-width="1"/>
<text x="848" y="106" fill="#0ea5e9" font-size="12" font-weight="900" letter-spacing="1.5">VISUAL COMPOSITION</text>
<text x="848" y="144" fill="#ffffff" font-size="24" font-weight="900">Visible UI first</text>
<rect x="848" y="212" width="276" height="48" rx="16" fill="#172033" stroke="#27364f" stroke-width="1"/>
<text x="866" y="242" fill="#dbeafe" font-size="13" font-weight="760">Single column · 20pt side padding</text>
<rect x="848" y="272" width="276" height="48" rx="16" fill="#172033" stroke="#27364f" stroke-width="1"/>
<text x="866" y="302" fill="#dbeafe" font-size="13" font-weight="760">Fields, errors, and CTA share one left edge</text>
<rect x="848" y="332" width="276" height="48" rx="16" fill="#172033" stroke="#27364f" stroke-width="1"/>
<text x="866" y="362" fill="#dbeafe" font-size="13" font-weight="760">Only the bottom CTA is fixed</text>
<text x="848" y="406" fill="#0ea5e9" font-size="12" font-weight="900" letter-spacing="1.5">STATE HANDLING</text>
<rect x="848" y="436" width="131" height="30" rx="15" fill="#1f2937" stroke-width="1"/>
<text x="913.5" y="456" fill="#e5f7ff" font-size="11" font-weight="850" text-anchor="middle">empty</text>
<rect x="848" y="474" width="145" height="30" rx="15" fill="#1f2937" stroke-width="1"/>
<text x="920.5" y="494" fill="#e5f7ff" font-size="11" font-weight="850" text-anchor="middle">focused</text>
<rect x="848" y="512" width="180" height="30" rx="15" fill="#1f2937" stroke-width="1"/>
<text x="938.0" y="532" fill="#e5f7ff" font-size="11" font-weight="850" text-anchor="middle">invalid code</text>
<rect x="848" y="550" width="187" height="30" rx="15" fill="#1f2937" stroke-width="1"/>
<text x="941.5" y="570" fill="#e5f7ff" font-size="11" font-weight="850" text-anchor="middle">expired timer</text>
<rect x="848" y="588" width="208" height="30" rx="15" fill="#1f2937" stroke-width="1"/>
<text x="952.0" y="608" fill="#e5f7ff" font-size="11" font-weight="850" text-anchor="middle">resend available</text>
<text x="848" y="564" fill="#0ea5e9" font-size="12" font-weight="900" letter-spacing="1.5">QUALITY GATE</text>
<circle cx="854" cy="593" r="4" fill="#0ea5e9" stroke-width="1"/>
<text x="868" y="598" fill="#dbeafe" font-size="13" font-weight="800">no overlap</text>
<circle cx="854" cy="621" r="4" fill="#0ea5e9" stroke-width="1"/>
<text x="868" y="626" fill="#dbeafe" font-size="13" font-weight="800">no cropped text</text>
<circle cx="854" cy="649" r="4" fill="#0ea5e9" stroke-width="1"/>
<text x="868" y="654" fill="#dbeafe" font-size="13" font-weight="800">metadata outside app UI</text>
<text x="848" y="684" fill="#94a3b8" font-size="11" font-weight="650">top app bar with back action ·</text></g>
</svg>