<svg xmlns="http://www.w3.org/2000/svg" width="1200" height="760" viewBox="0 0 1200 760" role="img" aria-labelledby="title desc">
  <title id="title">한국 핀테크 휴대폰 본인인증 prompt to generated mobile UI preview</title>
  <desc id="desc">Visual mobile UI/UX result generated from a user prompt by the Mobile UI Generator skill.</desc>
  <defs>
    <linearGradient id="bg" x1="0" y1="0" x2="1" y2="1"><stop offset="0" stop-color="#050814"/><stop offset=".55" stop-color="#0f172a"/><stop offset="1" stop-color="#11202b"/></linearGradient>
    <filter id="shadow" x="-20%" y="-20%" width="140%" height="140%"><feDropShadow dx="0" dy="24" stdDeviation="28" flood-color="#000" flood-opacity=".32"/></filter>
    <style>text{font-family:-apple-system,BlinkMacSystemFont,'Pretendard','Noto Sans KR','Segoe UI',sans-serif} .card{filter:url(#shadow)}</style>
  </defs>
  <rect width="1200" height="760" rx="44" fill="url(#bg)"/>
  <circle cx="1080" cy="80" r="150" fill="#38bdf8" opacity=".16"/>
  <circle cx="650" cy="690" r="190" fill="#38bdf8" opacity=".10"/>
  <rect x="48" y="58" width="360" height="644" rx="30" fill="#111827" stroke="#ffffff" stroke-width="1"/>
<text x="78" y="104" fill="#38bdf8" font-size="13" font-weight="900" letter-spacing="1.8">요청 프롬프트</text>
<text x="78" y="146" fill="#ffffff" font-size="21" font-weight="850">한국 핀테크 회원가입용 휴대폰 본인인증 화면을</text>
<text x="78" y="173" fill="#ffffff" font-size="21" font-weight="850">설계해줘. 필수 약관, 재전송 타이머, 오류</text>
<text x="78" y="200" fill="#ffffff" font-size="21" font-weight="850">상태, 안전한 고정 CTA가 필요해.</text>
<rect x="78" y="294" width="300" height="1" rx="0" fill="#ffffff" opacity="0.12"/>
<text x="78" y="336" fill="#38bdf8" font-size="13" font-weight="900" letter-spacing="1.8">생성되는 UI/UX</text>
<rect x="78" y="348" width="300" height="58" rx="18" fill="#1f2937" stroke="#38bdf8" stroke-width="1"/>
<text x="98" y="372" fill="#dbeafe" font-size="15" font-weight="760">단일 작업 폼으로 인증만 집중</text>
<rect x="78" y="424" width="300" height="58" rx="18" fill="#1f2937" stroke="#38bdf8" stroke-width="1"/>
<text x="98" y="448" fill="#dbeafe" font-size="15" font-weight="760">오류와 재전송 상태를 화면 안에서 즉시 회복</text>
<rect x="78" y="500" width="300" height="58" rx="18" fill="#1f2937" stroke="#38bdf8" stroke-width="1"/>
<text x="98" y="524" fill="#dbeafe" font-size="15" font-weight="760">하단 CTA는 조건 충족 전까지 안전하게 비활성</text>
<rect x="78" y="624" width="132" height="36" rx="18.0" fill="#38bdf8"/>
<text x="144.0" y="647.0" fill="#07111f" font-size="14" font-weight="800" text-anchor="middle">Mobile UI</text>
<rect x="222" y="624" width="126" height="36" rx="18.0" fill="#26364d"/>
<text x="285.0" y="647.0" fill="#dbeafe" font-size="14" font-weight="800" text-anchor="middle">UX States</text>
  <g class="card"><rect x="476" y="42" width="336" height="676" rx="44" fill="#07111f" stroke="#24364d" stroke-width="2"/>
<rect x="486" y="52" width="316" height="656" rx="34" fill="#f7f8fb"/>
<rect x="602.0" y="64" width="84" height="8" rx="4" fill="#0f1d2e" opacity="0.25"/>
<text x="510" y="86" fill="#334155" font-size="12" font-weight="800">9:41</text>
<circle cx="757" cy="81" r="4" fill="#334155" opacity=".65"/>
<circle cx="770" cy="81" r="4" fill="#334155" opacity=".45"/>
<circle cx="783" cy="81" r="4" fill="#334155" opacity=".28"/>
<text x="510" y="134" fill="#111827" font-size="28" font-weight="900">‹</text>
<text x="548" y="134" fill="#111827" font-size="20" font-weight="900">휴대폰 본인인증</text>
<text x="510" y="194" fill="#0f172a" font-size="28" font-weight="900">휴대폰 본인인증</text>
<text x="510" y="226" fill="#64748b" font-size="15" font-weight="650">가입을 계속하려면 인증번호를 입력하세요.</text>
<rect x="510" y="282" width="268" height="72" rx="20" fill="#ffffff" stroke="#e2e8f0" stroke-width="1"/>
<text x="530" y="310" fill="#111827" font-size="22" font-weight="900">010-****-4821</text>
<text x="530" y="336" fill="#64748b" font-size="13" font-weight="800">SMS</text>
<rect x="510" y="384" width="36" height="48" rx="12" fill="#ffffff" stroke="#cbd5e1" stroke-width="2"/>
<text x="528" y="415" fill="#0f172a" font-size="22" font-weight="900" text-anchor="middle">1</text>
<rect x="555" y="384" width="36" height="48" rx="12" fill="#ffffff" stroke="#cbd5e1" stroke-width="2"/>
<text x="573" y="415" fill="#0f172a" font-size="22" font-weight="900" text-anchor="middle">4</text>
<rect x="600" y="384" width="36" height="48" rx="12" fill="#ffffff" stroke="#cbd5e1" stroke-width="2"/>
<text x="618" y="415" fill="#0f172a" font-size="22" font-weight="900" text-anchor="middle">8</text>
<rect x="645" y="384" width="36" height="48" rx="12" fill="#ffffff" stroke="#0ea5e9" stroke-width="2"/>
<text x="663" y="415" fill="#0f172a" font-size="22" font-weight="900" text-anchor="middle" opacity="0.35">•</text>
<rect x="690" y="384" width="36" height="48" rx="12" fill="#ffffff" stroke="#cbd5e1" stroke-width="2"/>
<text x="708" y="415" fill="#0f172a" font-size="22" font-weight="900" text-anchor="middle" opacity="0.35">•</text>
<rect x="735" y="384" width="36" height="48" rx="12" fill="#ffffff" stroke="#cbd5e1" stroke-width="2"/>
<text x="753" y="415" fill="#0f172a" font-size="22" font-weight="900" text-anchor="middle" opacity="0.35">•</text>
<text x="510" y="464" fill="#ef4444" font-size="14" font-weight="800">인증번호가 맞지 않아요.</text>
<text x="656" y="464" fill="#0ea5e9" font-size="14" font-weight="800">02:31 후 재전송</text>
<rect x="510" y="512" width="268" height="54" rx="18" fill="#ffffff" stroke="#e2e8f0" stroke-width="1"/>
<rect x="528" y="529" width="22" height="22" rx="7" fill="#0ea5e9"/>
<text x="562" y="548" fill="#111827" font-size="15" font-weight="800">필수 약관 동의</text>
<rect x="502" y="626" width="284" height="62" rx="24" fill="#0ea5e9"/>
<text x="644" y="664" fill="#ffffff" font-size="18" font-weight="900" text-anchor="middle">인증하고 계속하기</text></g>
  <g class="card"><rect x="880" y="174" width="236" height="430" rx="44" fill="#07111f" stroke="#24364d" stroke-width="2"/>
<rect x="890" y="184" width="216" height="410" rx="34" fill="#f8fbff"/>
<rect x="956.0" y="196" width="84" height="8" rx="4" fill="#0f1d2e" opacity="0.25"/>
<text x="914" y="218" fill="#334155" font-size="12" font-weight="800">9:41</text>
<circle cx="1061" cy="213" r="4" fill="#334155" opacity=".65"/>
<circle cx="1074" cy="213" r="4" fill="#334155" opacity=".45"/>
<circle cx="1087" cy="213" r="4" fill="#334155" opacity=".28"/>
<text x="908" y="266" fill="#0f172a" font-size="20" font-weight="900">오류/재전송 상태</text>
<rect x="908" y="300" width="180" height="42" rx="14" fill="#ffffff" stroke="#e5e7eb" stroke-width="1"/>
<text x="924" y="327" fill="#334155" font-size="14" font-weight="760">타이머 만료</text>
<rect x="908" y="354" width="180" height="42" rx="14" fill="#ffffff" stroke="#e5e7eb" stroke-width="1"/>
<text x="924" y="381" fill="#334155" font-size="14" font-weight="760">인증번호 오류</text>
<rect x="908" y="408" width="180" height="42" rx="14" fill="#ffffff" stroke="#e5e7eb" stroke-width="1"/>
<text x="924" y="435" fill="#334155" font-size="14" font-weight="760">재전송 가능</text>
<rect x="908" y="462" width="180" height="42" rx="14" fill="#ffffff" stroke="#e5e7eb" stroke-width="1"/>
<text x="924" y="489" fill="#334155" font-size="14" font-weight="760">네트워크 오류</text>
<rect x="908" y="534" width="180" height="42" rx="16" fill="#38bdf8"/>
<text x="998" y="561" fill="#ffffff" font-size="14" font-weight="900" text-anchor="middle">Retry</text></g>
  <text x="880" y="116" fill="#38bdf8" font-size="13" font-weight="900" letter-spacing="1.8">상태 대응 예시</text>
  <text x="880" y="144" fill="#dbeafe" font-size="18" font-weight="800">스킬은 상태 변화까지 설계합니다.</text>
</svg>