<svg xmlns="http://www.w3.org/2000/svg" width="1200" height="760" viewBox="0 0 1200 760" role="img" aria-labelledby="title desc">
  <title id="title">Mobility map booking bottom sheet prompt to generated mobile UI preview</title>
  <desc id="desc">Visual mobile UI/UX result generated from a user prompt by the Mobile UI Generator skill.</desc>
  <defs>
    <linearGradient id="bg" x1="0" y1="0" x2="1" y2="1"><stop offset="0" stop-color="#050814"/><stop offset=".55" stop-color="#0f172a"/><stop offset="1" stop-color="#11202b"/></linearGradient>
    <filter id="shadow" x="-20%" y="-20%" width="140%" height="140%"><feDropShadow dx="0" dy="24" stdDeviation="28" flood-color="#000" flood-opacity=".32"/></filter>
    <style>text{font-family:-apple-system,BlinkMacSystemFont,'Pretendard','Noto Sans KR','Segoe UI',sans-serif} .card{filter:url(#shadow)}</style>
  </defs>
  <rect width="1200" height="760" rx="44" fill="url(#bg)"/>
  <circle cx="1080" cy="80" r="150" fill="#10b981" opacity=".16"/>
  <circle cx="650" cy="690" r="190" fill="#10b981" opacity=".10"/>
  <rect x="48" y="58" width="360" height="644" rx="30" fill="#111827" stroke="#ffffff" stroke-width="1"/>
<text x="78" y="104" fill="#10b981" font-size="13" font-weight="900" letter-spacing="1.8">REQUESTED PROMPT</text>
<text x="78" y="146" fill="#ffffff" font-size="21" font-weight="850">Design a ride booking screen</text>
<text x="78" y="173" fill="#ffffff" font-size="21" font-weight="850">with map, route choices,</text>
<text x="78" y="200" fill="#ffffff" font-size="21" font-weight="850">location permission fallback,</text>
<text x="78" y="227" fill="#ffffff" font-size="21" font-weight="850">and bottom-sheet payment CTA.</text>
<rect x="78" y="294" width="300" height="1" rx="0" fill="#ffffff" opacity="0.12"/>
<text x="78" y="336" fill="#10b981" font-size="13" font-weight="900" letter-spacing="1.8">GENERATED UI/UX</text>
<rect x="78" y="348" width="300" height="58" rx="18" fill="#1f2937" stroke="#10b981" stroke-width="1"/>
<text x="98" y="372" fill="#dbeafe" font-size="15" font-weight="760">Route choice without losing map</text>
<text x="98" y="391" fill="#dbeafe" font-size="15" font-weight="760">context</text>
<rect x="78" y="424" width="300" height="58" rx="18" fill="#1f2937" stroke="#10b981" stroke-width="1"/>
<text x="98" y="448" fill="#dbeafe" font-size="15" font-weight="760">Fare, ETA, and CTA live inside</text>
<text x="98" y="467" fill="#dbeafe" font-size="15" font-weight="760">the sheet</text>
<rect x="78" y="500" width="300" height="58" rx="18" fill="#1f2937" stroke="#10b981" stroke-width="1"/>
<text x="98" y="524" fill="#dbeafe" font-size="15" font-weight="760">Permission denial switches to</text>
<text x="98" y="543" fill="#dbeafe" font-size="15" font-weight="760">address search</text>
<rect x="78" y="624" width="132" height="36" rx="18.0" fill="#10b981"/>
<text x="144.0" y="647.0" fill="#07111f" font-size="14" font-weight="800" text-anchor="middle">Mobile UI</text>
<rect x="222" y="624" width="126" height="36" rx="18.0" fill="#26364d"/>
<text x="285.0" y="647.0" fill="#dbeafe" font-size="14" font-weight="800" text-anchor="middle">UX States</text>
  <g class="card"><rect x="476" y="42" width="336" height="676" rx="44" fill="#07111f" stroke="#24364d" stroke-width="2"/>
<rect x="486" y="52" width="316" height="656" rx="34" fill="#e8f3f2"/>
<rect x="602.0" y="64" width="84" height="8" rx="4" fill="#0f1d2e" opacity="0.25"/>
<text x="510" y="86" fill="#334155" font-size="12" font-weight="800">9:41</text>
<circle cx="757" cy="81" r="4" fill="#334155" opacity=".65"/>
<circle cx="770" cy="81" r="4" fill="#334155" opacity=".45"/>
<circle cx="783" cy="81" r="4" fill="#334155" opacity=".28"/>
<rect x="486" y="102" width="316" height="410" rx="30" fill="#dbeafe"/>
<path d="M520 302 C604 222, 682 392, 770 262" fill="none" stroke="#94a3b8" stroke-width="18" stroke-linecap="round" opacity=".35"/>
<path d="M550 378 C618 304, 686 356, 746 224" fill="none" stroke="#0ea5e9" stroke-width="7" stroke-linecap="round"/>
<circle cx="550" cy="378" r="13" fill="#22c55e" stroke="#fff" stroke-width="4"/>
<circle cx="746" cy="224" r="13" fill="#ef4444" stroke="#fff" stroke-width="4"/>
<rect x="510" y="124" width="268" height="48" rx="18" fill="#ffffff" stroke="#dbeafe" stroke-width="1"/>
<text x="530" y="154" fill="#111827" font-size="16" font-weight="900">Gangnam → Han River</text>
<rect x="496" y="432" width="296" height="278" rx="30" fill="#ffffff" stroke="#d1d5db" stroke-width="1"/>
<text x="520" y="472" fill="#111827" font-size="22" font-weight="900">Choose route</text>
<rect x="520" y="496" width="248" height="56" rx="18" fill="#f8fafc" stroke="#e2e8f0" stroke-width="1"/>
<text x="538" y="520" fill="#111827" font-size="15" font-weight="900">Fast route</text>
<text x="538" y="540" fill="#64748b" font-size="12" font-weight="700">18m · recommended</text>
<text x="750" y="531" fill="#0f172a" font-size="14" font-weight="900" text-anchor="end">₩12,400</text>
<rect x="520" y="566" width="248" height="56" rx="18" fill="#f8fafc" stroke="#e2e8f0" stroke-width="1"/>
<text x="538" y="590" fill="#111827" font-size="15" font-weight="900">Value route</text>
<text x="538" y="610" fill="#64748b" font-size="12" font-weight="700">24m · 8m wait</text>
<text x="750" y="601" fill="#0f172a" font-size="14" font-weight="900" text-anchor="end">₩9,800</text>
<rect x="520" y="644" width="248" height="48" rx="20" fill="#0ea5e9"/>
<text x="644" y="674" fill="#ffffff" font-size="16" font-weight="900" text-anchor="middle">Reserve and pay</text></g>
  <g class="card"><rect x="880" y="174" width="236" height="430" rx="44" fill="#07111f" stroke="#24364d" stroke-width="2"/>
<rect x="890" y="184" width="216" height="410" rx="34" fill="#f8fbff"/>
<rect x="956.0" y="196" width="84" height="8" rx="4" fill="#0f1d2e" opacity="0.25"/>
<text x="914" y="218" fill="#334155" font-size="12" font-weight="800">9:41</text>
<circle cx="1061" cy="213" r="4" fill="#334155" opacity=".65"/>
<circle cx="1074" cy="213" r="4" fill="#334155" opacity=".45"/>
<circle cx="1087" cy="213" r="4" fill="#334155" opacity=".28"/>
<text x="908" y="266" fill="#0f172a" font-size="20" font-weight="900">Location fallback</text>
<rect x="908" y="300" width="180" height="42" rx="14" fill="#ffffff" stroke="#e5e7eb" stroke-width="1"/>
<text x="924" y="327" fill="#334155" font-size="14" font-weight="760">Search address</text>
<rect x="908" y="354" width="180" height="42" rx="14" fill="#ffffff" stroke="#e5e7eb" stroke-width="1"/>
<text x="924" y="381" fill="#334155" font-size="14" font-weight="760">Recent places</text>
<rect x="908" y="408" width="180" height="42" rx="14" fill="#ffffff" stroke="#e5e7eb" stroke-width="1"/>
<text x="924" y="435" fill="#334155" font-size="14" font-weight="760">Manual entry</text>
<rect x="908" y="462" width="180" height="42" rx="14" fill="#ffffff" stroke="#e5e7eb" stroke-width="1"/>
<text x="924" y="489" fill="#334155" font-size="14" font-weight="760">Ask again</text>
<rect x="908" y="534" width="180" height="42" rx="16" fill="#10b981"/>
<text x="998" y="561" fill="#ffffff" font-size="14" font-weight="900" text-anchor="middle">Retry</text></g>
  <text x="880" y="116" fill="#10b981" font-size="13" font-weight="900" letter-spacing="1.8">ALTERNATE STATE</text>
  <text x="880" y="144" fill="#dbeafe" font-size="18" font-weight="800">The skill includes state-aware UI.</text>
</svg>