<svg xmlns="http://www.w3.org/2000/svg" width="1200" height="760" viewBox="0 0 1200 760" role="img" aria-labelledby="title desc" data-template="visual-composition-v2" data-generated-by="scripts/generate_preview_svgs.py">
  <title id="title">Mobility map booking bottom sheet prompt to generated mobile UI preview</title>
  <desc id="desc">Generated from a shared visual composition template: prompt, mobile UI screen, state handling, and rendered QA guidance.</desc>
  <metadata>scripts/generate_preview_svgs.py · visual-composition-v2</metadata>
  <defs>
    <linearGradient id="bg" x1="0" y1="0" x2="1" y2="1"><stop offset="0" stop-color="#050814"/><stop offset=".55" stop-color="#0f172a"/><stop offset="1" stop-color="#111827"/></linearGradient>
    <filter id="shadow" x="-20%" y="-20%" width="140%" height="140%"><feDropShadow dx="0" dy="22" stdDeviation="24" flood-color="#000" flood-opacity=".30"/></filter>
    <style>text{font-family:-apple-system,BlinkMacSystemFont,'Pretendard','Noto Sans KR','Segoe UI',sans-serif} .card{filter:url(#shadow)}</style>
  </defs>
  <rect width="1200" height="760" rx="44" fill="url(#bg)"/>
  <circle cx="1064" cy="92" r="154" fill="#10b981" opacity="0.14" stroke-width="1"/>
  <circle cx="614" cy="720" r="214" fill="#10b981" opacity="0.08" stroke-width="1"/>
  <g class="card"><rect x="48" y="58" width="332" height="644" rx="30" fill="#111827" stroke="#ffffff" stroke-width="1"/>
<text x="76" y="106" fill="#10b981" font-size="12" font-weight="900" letter-spacing="1.5">REQUESTED PROMPT</text>
<text x="76" y="150" fill="#ffffff" font-size="19" font-weight="850">Design a ride booking screen</text>
<text x="76" y="176" fill="#ffffff" font-size="19" font-weight="850">with map, route choices,</text>
<text x="76" y="202" fill="#ffffff" font-size="19" font-weight="850">location permission fallback,</text>
<text x="76" y="228" fill="#ffffff" font-size="19" font-weight="850">and bottom-sheet payment CTA.</text>
<rect x="76" y="326" width="276" height="1" rx="0" fill="#ffffff" stroke-width="1" opacity="0.12"/>
<text x="76" y="372" fill="#10b981" font-size="12" font-weight="900" letter-spacing="1.5">GENERATED UI/UX</text>
<rect x="76" y="404" width="276" height="58" rx="18" fill="#1f2937" stroke="#10b981" stroke-width="1"/>
<text x="96" y="428" fill="#dbeafe" font-size="14" font-weight="760">Map provides context; choices</text>
<text x="96" y="446" fill="#dbeafe" font-size="14" font-weight="760">live in the sheet</text>
<rect x="76" y="480" width="276" height="58" rx="18" fill="#1f2937" stroke="#10b981" stroke-width="1"/>
<text x="96" y="504" fill="#dbeafe" font-size="14" font-weight="760">Fare, ETA, and CTA stay in</text>
<text x="96" y="522" fill="#dbeafe" font-size="14" font-weight="760">one sheet</text>
<rect x="76" y="556" width="276" height="58" rx="18" fill="#1f2937" stroke="#10b981" stroke-width="1"/>
<text x="96" y="580" fill="#dbeafe" font-size="14" font-weight="760">Denied location falls back to</text>
<text x="96" y="598" fill="#dbeafe" font-size="14" font-weight="760">address list</text>
<rect x="76" y="630" width="116" height="30" rx="15" fill="#10b981" stroke-width="1"/>
<text x="134.0" y="650" fill="#07111f" font-size="12" font-weight="850" text-anchor="middle">Mobile UI</text>
<rect x="206" y="630" width="116" height="30" rx="15" fill="#26364d" stroke-width="1"/>
<text x="264.0" y="650" fill="#dbeafe" font-size="12" font-weight="850" text-anchor="middle">UX QA</text></g>
  <g class="card" data-phone-template="mobility-map-booking"><rect x="430" y="44" width="340" height="672" rx="44" fill="#07111f" stroke="#27374f" stroke-width="2"/>
<rect x="440" y="54" width="320" height="652" rx="34" fill="#ecfdf5" stroke-width="1"/>
<rect x="558.0" y="67" width="84" height="7" rx="4" fill="#0f172a" stroke-width="1" opacity="0.22"/>
<text x="462" y="89" fill="#334155" font-size="12" font-weight="850">9:41</text>
<circle cx="714" cy="83" r="4" fill="#334155" opacity="0.65" stroke-width="1"/>
<circle cx="727" cy="83" r="4" fill="#334155" opacity="0.45" stroke-width="1"/>
<circle cx="740" cy="83" r="4" fill="#334155" opacity="0.28" stroke-width="1"/>
<rect x="444" y="104" width="312" height="380" rx="30" fill="#dbeafe" stroke-width="1"/>
<path d="M478 324 C554 249, 650 404, 722 254" fill="none" stroke="#94a3b8" stroke-width="18" stroke-linecap="round" stroke-linejoin="round" opacity="0.35"/>
<path d="M500 384 C572 309, 654 364, 712 224" fill="none" stroke="#10b981" stroke-width="7" stroke-linecap="round" stroke-linejoin="round"/>
<circle cx="500" cy="384" r="13" fill="#22c55e" stroke="#ffffff" stroke-width="4"/>
<circle cx="712" cy="224" r="13" fill="#ef4444" stroke="#ffffff" stroke-width="4"/>
<rect x="464" y="130" width="272" height="48" rx="18" fill="#ffffff" stroke="#c7d2fe" stroke-width="1"/>
<text x="482" y="160" fill="#111827" font-size="15" font-weight="900">Gangnam → Han River</text>
<rect x="450" y="436" width="300" height="270" rx="30" fill="#ffffff" stroke="#d1d5db" stroke-width="1"/>
<rect x="572.0" y="450" width="56" height="5" rx="3" fill="#cbd5e1" stroke-width="1"/>
<text x="474" y="486" fill="#111827" font-size="21" font-weight="900">Choose route</text>
<rect x="474" y="508" width="252" height="58" rx="18" fill="#ffffff" stroke="#e5e7eb" stroke-width="1"/>
<text x="492" y="533" fill="#111827" font-size="14" font-weight="900">Fast route</text>
<text x="492" y="553" fill="#64748b" font-size="12" font-weight="700">18m · recommended</text>
<text x="710" y="543" fill="#111827" font-size="13" font-weight="900" text-anchor="end">₩12,400</text>
<rect x="474" y="576" width="252" height="58" rx="18" fill="#ffffff" stroke="#e5e7eb" stroke-width="1"/>
<text x="492" y="601" fill="#111827" font-size="14" font-weight="900">Value route</text>
<text x="492" y="621" fill="#64748b" font-size="12" font-weight="700">24m · 8m wait</text>
<text x="710" y="611" fill="#111827" font-size="13" font-weight="900" text-anchor="end">₩9,800</text>
<rect x="474" y="646" width="252" height="56" rx="22" fill="#10b981" stroke-width="1"/>
<text x="600.0" y="681" fill="#ffffff" font-size="16" font-weight="900" text-anchor="middle">Reserve and pay</text></g>
  <g class="card"><rect x="820" y="58" width="332" height="644" rx="30" fill="#101827" stroke="#ffffff" stroke-width="1"/>
<text x="848" y="106" fill="#10b981" font-size="12" font-weight="900" letter-spacing="1.5">VISUAL COMPOSITION</text>
<text x="848" y="144" fill="#ffffff" font-size="24" font-weight="900">Visible UI first</text>
<rect x="848" y="212" width="276" height="48" rx="16" fill="#172033" stroke="#27364f" stroke-width="1"/>
<text x="866" y="242" fill="#dbeafe" font-size="13" font-weight="760">Top 55% map + lower sheet</text>
<rect x="848" y="272" width="276" height="48" rx="16" fill="#172033" stroke="#27364f" stroke-width="1"/>
<text x="866" y="302" fill="#dbeafe" font-size="13" font-weight="760">Sheet does not cover every map control</text>
<rect x="848" y="332" width="276" height="48" rx="16" fill="#172033" stroke="#27364f" stroke-width="1"/>
<text x="866" y="362" fill="#dbeafe" font-size="13" font-weight="760">Route rows keep fixed height and price edge</text>
<text x="848" y="406" fill="#10b981" font-size="12" font-weight="900" letter-spacing="1.5">STATE HANDLING</text>
<rect x="848" y="436" width="152" height="30" rx="15" fill="#1f2937" stroke-width="1"/>
<text x="924.0" y="456" fill="#e5f7ff" font-size="11" font-weight="850" text-anchor="middle">locating</text>
<rect x="848" y="474" width="215" height="30" rx="15" fill="#1f2937" stroke-width="1"/>
<text x="955.5" y="494" fill="#e5f7ff" font-size="11" font-weight="850" text-anchor="middle">permission denied</text>
<rect x="848" y="512" width="229" height="30" rx="15" fill="#1f2937" stroke-width="1"/>
<text x="962.5" y="532" fill="#e5f7ff" font-size="11" font-weight="850" text-anchor="middle">route recalculating</text>
<rect x="848" y="550" width="194" height="30" rx="15" fill="#1f2937" stroke-width="1"/>
<text x="945.0" y="570" fill="#e5f7ff" font-size="11" font-weight="850" text-anchor="middle">no nearby cars</text>
<rect x="848" y="588" width="187" height="30" rx="15" fill="#1f2937" stroke-width="1"/>
<text x="941.5" y="608" fill="#e5f7ff" font-size="11" font-weight="850" text-anchor="middle">surge pricing</text>
<text x="848" y="564" fill="#10b981" font-size="12" font-weight="900" letter-spacing="1.5">QUALITY GATE</text>
<circle cx="854" cy="593" r="4" fill="#10b981" stroke-width="1"/>
<text x="868" y="598" fill="#dbeafe" font-size="13" font-weight="800">no overlap</text>
<circle cx="854" cy="621" r="4" fill="#10b981" stroke-width="1"/>
<text x="868" y="626" fill="#dbeafe" font-size="13" font-weight="800">no cropped text</text>
<circle cx="854" cy="649" r="4" fill="#10b981" stroke-width="1"/>
<text x="868" y="654" fill="#dbeafe" font-size="13" font-weight="800">metadata outside app UI</text>
<text x="848" y="684" fill="#94a3b8" font-size="11" font-weight="650">map canvas · pickup/destination</text></g>
</svg>