<svg width="1400" height="520" viewBox="0 0 1400 520" fill="none" xmlns="http://www.w3.org/2000/svg">
  <defs>
    <linearGradient id="bg" x1="0" y1="0" x2="1400" y2="520" gradientUnits="userSpaceOnUse">
      <stop stop-color="#070A12"/>
      <stop offset="0.55" stop-color="#0D1324"/>
      <stop offset="1" stop-color="#102A32"/>
    </linearGradient>
    <linearGradient id="accent" x1="0" y1="0" x2="1" y2="1">
      <stop stop-color="#80FFDB"/>
      <stop offset="1" stop-color="#5390D9"/>
    </linearGradient>
    <filter id="glow" x="-80" y="-80" width="1560" height="680" filterUnits="userSpaceOnUse">
      <feGaussianBlur stdDeviation="42" result="blur"/>
      <feColorMatrix in="blur" type="matrix" values="0 0 0 0 0.188 0 0 0 0 0.906 0 0 0 0 0.706 0 0 0 0.30 0"/>
      <feBlend in2="SourceGraphic" mode="screen"/>
    </filter>
  </defs>

  <rect width="1400" height="520" rx="42" fill="url(#bg)"/>
  <circle cx="1070" cy="78" r="240" fill="#28E7AE" opacity="0.12" filter="url(#glow)"/>
  <circle cx="205" cy="420" r="190" fill="#3A86FF" opacity="0.14" filter="url(#glow)"/>

  <g opacity="0.38">
    <path d="M74 90H1326" stroke="white" stroke-opacity="0.08"/>
    <path d="M74 430H1326" stroke="white" stroke-opacity="0.08"/>
    <path d="M210 56V464" stroke="white" stroke-opacity="0.06"/>
    <path d="M1190 56V464" stroke="white" stroke-opacity="0.06"/>
  </g>

  <text x="86" y="126" fill="#B7FFE9" font-family="ui-monospace, SFMono-Regular, Menlo, monospace" font-size="21" letter-spacing="2">MOBILE UI GENERATOR SKILL</text>
  <text x="86" y="210" fill="white" font-family="Arial, Helvetica, sans-serif" font-size="68" font-weight="800" letter-spacing="-2.6">Service-aware</text>
  <text x="86" y="284" fill="white" font-family="Arial, Helvetica, sans-serif" font-size="68" font-weight="800" letter-spacing="-2.6">mobile UX/UI</text>
  <text x="88" y="342" fill="#C7D2FE" font-family="Arial, Helvetica, sans-serif" font-size="25">Briefs · JSON specs · font profiles · implementation prompts</text>
  <text x="88" y="377" fill="#94A3B8" font-family="Arial, Helvetica, sans-serif" font-size="23">English or Korean output mode, selected by the user</text>

  <rect x="88" y="400" width="620" height="82" rx="20" fill="#111827" stroke="#2DD4BF" stroke-opacity="0.45"/>
  <text x="116" y="431" fill="#9CA3AF" font-family="ui-monospace, SFMono-Regular, Menlo, monospace" font-size="18">npx skills add</text>
  <text x="116" y="464" fill="#E5E7EB" font-family="ui-monospace, SFMono-Regular, Menlo, monospace" font-size="22">jinyoung89/mobile-ui-generator-skill</text>

  <g transform="translate(822 78)">
    <rect x="0" y="0" width="168" height="338" rx="35" fill="#F8FAFC" stroke="#D9F99D" stroke-width="4"/>
    <rect x="18" y="30" width="132" height="280" rx="24" fill="#FFFFFF"/>
    <rect x="38" y="58" width="80" height="10" rx="5" fill="#111827"/>
    <rect x="38" y="85" width="108" height="9" rx="4.5" fill="#CBD5E1"/>
    <rect x="38" y="116" width="104" height="38" rx="13" fill="#EEF2FF"/>
    <rect x="38" y="170" width="104" height="12" rx="6" fill="#E2E8F0"/>
    <rect x="38" y="194" width="104" height="12" rx="6" fill="#E2E8F0"/>
    <rect x="38" y="244" width="104" height="44" rx="16" fill="url(#accent)"/>
  </g>

  <g transform="translate(1010 50)">
    <rect x="0" y="0" width="188" height="380" rx="38" fill="#0F172A" stroke="#38BDF8" stroke-opacity="0.8" stroke-width="4"/>
    <rect x="20" y="34" width="148" height="314" rx="25" fill="#111827"/>
    <rect x="39" y="62" width="96" height="11" rx="5.5" fill="#E5E7EB"/>
    <rect x="39" y="96" width="112" height="76" rx="18" fill="#1F2937"/>
    <rect x="39" y="194" width="112" height="18" rx="9" fill="#334155"/>
    <rect x="39" y="226" width="112" height="18" rx="9" fill="#334155"/>
    <rect x="39" y="286" width="112" height="44" rx="16" fill="#22C55E"/>
  </g>

  <g transform="translate(1218 94)">
    <rect x="0" y="0" width="146" height="296" rx="32" fill="#F8FAFC" stroke="#FDE68A" stroke-width="4"/>
    <rect x="16" y="28" width="114" height="241" rx="22" fill="#FFFBEB"/>
    <path d="M32 62H114V150H32z" fill="#FEF3C7"/>
    <path d="M44 79C60 64 84 87 102 69" stroke="#F59E0B" stroke-width="6" stroke-linecap="round"/>
    <rect x="32" y="169" width="82" height="12" rx="6" fill="#92400E" opacity="0.3"/>
    <rect x="32" y="194" width="82" height="12" rx="6" fill="#92400E" opacity="0.3"/>
    <rect x="32" y="230" width="82" height="34" rx="14" fill="#F59E0B"/>
  </g>
</svg>
